<mxfile host="65bd71144e">
    <diagram id="qKQWcgbvUvCz4reh83LH" name="analys project">
        <mxGraphModel dx="2437" dy="472" grid="1" gridSize="10" guides="1" tooltips="1" connect="1" arrows="1" fold="1" page="1" pageScale="1" pageWidth="850" pageHeight="1100" math="0" shadow="0">
            <root>
                <mxCell id="0"/>
                <mxCell id="1" parent="0"/>
                <mxCell id="boqZEc-yEdmnLMPDOacp-1" value="" style="whiteSpace=wrap;html=1;aspect=fixed;" parent="1" vertex="1">
                    <mxGeometry x="-620" y="360" width="440" height="440" as="geometry"/>
                </mxCell>
                <mxCell id="1RmsraZckriD_mk0YtZa-92" style="edgeStyle=orthogonalEdgeStyle;rounded=0;orthogonalLoop=1;jettySize=auto;html=1;fontSize=14;entryX=0.407;entryY=-0.043;entryDx=0;entryDy=0;entryPerimeter=0;" parent="1" source="U53Ox7X2deRTkO3y4inI-1" target="1RmsraZckriD_mk0YtZa-27" edge="1">
                    <mxGeometry relative="1" as="geometry">
                        <mxPoint x="-720" y="680" as="targetPoint"/>
                        <Array as="points">
                            <mxPoint x="-700" y="578"/>
                        </Array>
                    </mxGeometry>
                </mxCell>
                <mxCell id="U53Ox7X2deRTkO3y4inI-1" value="" style="verticalLabelPosition=bottom;shadow=0;dashed=0;align=center;html=1;verticalAlign=top;strokeWidth=1;shape=mxgraph.mockup.containers.videoPlayer;strokeColor=#666666;strokeColor2=#008cff;strokeColor3=#c4c4c4;textColor=#666666;fillColor2=#008cff;barHeight=30;barPos=20;" parent="1" vertex="1">
                    <mxGeometry x="-600" y="470" width="280" height="217" as="geometry"/>
                </mxCell>
                <mxCell id="30RKXqmMtFW3DivNPmog-1" value="" style="html=1;verticalLabelPosition=bottom;align=center;labelBackgroundColor=#ffffff;verticalAlign=top;strokeWidth=2;strokeColor=#0080F0;shadow=0;dashed=0;shape=mxgraph.ios7.icons.video_conversation;fontSize=13;fontColor=#0066CC;" parent="1" vertex="1">
                    <mxGeometry x="-501.03" y="550" width="82.06" height="45" as="geometry"/>
                </mxCell>
                <mxCell id="1RmsraZckriD_mk0YtZa-21" style="edgeStyle=orthogonalEdgeStyle;rounded=0;orthogonalLoop=1;jettySize=auto;html=1;fontSize=24;" parent="1" source="30RKXqmMtFW3DivNPmog-2" edge="1">
                    <mxGeometry relative="1" as="geometry">
                        <mxPoint x="-100" y="840" as="targetPoint"/>
                    </mxGeometry>
                </mxCell>
                <mxCell id="30RKXqmMtFW3DivNPmog-2" value="" style="strokeWidth=1;shadow=0;dashed=0;align=center;html=1;shape=mxgraph.mockup.containers.rrect;rSize=0;strokeColor=#666666;" parent="1" vertex="1">
                    <mxGeometry x="-290" y="470" width="100" height="220" as="geometry"/>
                </mxCell>
                <mxCell id="30RKXqmMtFW3DivNPmog-3" value="song 1" style="strokeColor=inherit;fillColor=inherit;gradientColor=inherit;strokeWidth=1;shadow=0;dashed=0;align=center;html=1;shape=mxgraph.mockup.containers.rrect;rSize=0;fontSize=17;fontColor=#666666;fontStyle=1;resizeWidth=1;" parent="30RKXqmMtFW3DivNPmog-2" vertex="1">
                    <mxGeometry width="100" height="26" relative="1" as="geometry"/>
                </mxCell>
                <mxCell id="30RKXqmMtFW3DivNPmog-4" value="song 2" style="strokeColor=inherit;fillColor=inherit;gradientColor=inherit;strokeWidth=1;shadow=0;dashed=0;align=center;html=1;shape=mxgraph.mockup.containers.rrect;rSize=0;fontSize=17;fontColor=#666666;fontStyle=1;resizeWidth=1;" parent="30RKXqmMtFW3DivNPmog-2" vertex="1">
                    <mxGeometry width="100" height="26" relative="1" as="geometry">
                        <mxPoint y="26" as="offset"/>
                    </mxGeometry>
                </mxCell>
                <mxCell id="30RKXqmMtFW3DivNPmog-5" value="song 3" style="strokeWidth=1;shadow=0;dashed=0;align=center;html=1;shape=mxgraph.mockup.containers.rrect;rSize=0;fontSize=17;fontColor=#ffffff;fontStyle=1;fillColor=#008cff;strokeColor=#008cff;resizeWidth=1;" parent="30RKXqmMtFW3DivNPmog-2" vertex="1">
                    <mxGeometry width="100" height="26" relative="1" as="geometry">
                        <mxPoint y="52" as="offset"/>
                    </mxGeometry>
                </mxCell>
                <mxCell id="1RmsraZckriD_mk0YtZa-1" value="Music" style="whiteSpace=wrap;html=1;rounded=0;shadow=0;labelBackgroundColor=none;strokeWidth=1;fontFamily=Verdana;fontSize=28;align=center;comic=1;" parent="1" vertex="1">
                    <mxGeometry x="-610" y="370" width="90" height="40" as="geometry"/>
                </mxCell>
                <mxCell id="1RmsraZckriD_mk0YtZa-19" style="edgeStyle=orthogonalEdgeStyle;rounded=0;orthogonalLoop=1;jettySize=auto;html=1;fontSize=24;" parent="1" source="1RmsraZckriD_mk0YtZa-2" edge="1">
                    <mxGeometry relative="1" as="geometry">
                        <mxPoint x="-80" y="250" as="targetPoint"/>
                    </mxGeometry>
                </mxCell>
                <mxCell id="1RmsraZckriD_mk0YtZa-31" style="edgeStyle=orthogonalEdgeStyle;rounded=0;orthogonalLoop=1;jettySize=auto;html=1;fontSize=24;" parent="1" source="1RmsraZckriD_mk0YtZa-2" edge="1">
                    <mxGeometry relative="1" as="geometry">
                        <mxPoint x="140" y="440" as="targetPoint"/>
                        <Array as="points">
                            <mxPoint x="-315" y="440"/>
                            <mxPoint x="130" y="440"/>
                        </Array>
                    </mxGeometry>
                </mxCell>
                <mxCell id="1RmsraZckriD_mk0YtZa-2" value="Search" style="strokeWidth=1;shadow=0;dashed=0;align=center;html=1;shape=mxgraph.mockup.forms.searchBox;strokeColor=#999999;mainText=;strokeColor2=#008cff;fontColor=#666666;fontSize=17;align=left;spacingLeft=3;rounded=0;labelBackgroundColor=none;comic=1;" parent="1" vertex="1">
                    <mxGeometry x="-370" y="370" width="110" height="30" as="geometry"/>
                </mxCell>
                <mxCell id="1RmsraZckriD_mk0YtZa-3" value="" style="strokeWidth=1;shadow=0;dashed=0;align=center;html=1;shape=mxgraph.mockup.forms.rrect;rSize=0;strokeColor=#999999;fillColor=#ffffff;fontSize=18;" parent="1" vertex="1">
                    <mxGeometry x="-501.03" y="362.5" width="110" height="160" as="geometry"/>
                </mxCell>
                <mxCell id="1RmsraZckriD_mk0YtZa-4" value="&lt;font color=&quot;#000000&quot;&gt;Default&lt;/font&gt;" style="strokeWidth=1;shadow=0;dashed=0;align=center;html=1;shape=mxgraph.mockup.forms.rrect;rSize=0;strokeColor=#999999;fontColor=#008cff;fontSize=17;fillColor=#ffffff;resizeWidth=1;" parent="1RmsraZckriD_mk0YtZa-3" vertex="1">
                    <mxGeometry width="110" height="30" relative="1" as="geometry"/>
                </mxCell>
                <mxCell id="1RmsraZckriD_mk0YtZa-5" value="Acoustique" style="strokeWidth=1;shadow=0;dashed=0;align=center;html=1;shape=mxgraph.mockup.forms.anchor;fontSize=17;fontColor=#666666;align=left;spacingLeft=5;resizeWidth=1;" parent="1RmsraZckriD_mk0YtZa-3" vertex="1">
                    <mxGeometry width="110" height="20" relative="1" as="geometry">
                        <mxPoint y="30" as="offset"/>
                    </mxGeometry>
                </mxCell>
                <mxCell id="1RmsraZckriD_mk0YtZa-6" value="Classique" style="strokeWidth=1;shadow=0;dashed=0;align=center;html=1;shape=mxgraph.mockup.forms.anchor;fontSize=17;fontColor=#666666;align=left;spacingLeft=5;resizeWidth=1;" parent="1RmsraZckriD_mk0YtZa-3" vertex="1">
                    <mxGeometry width="110" height="20" relative="1" as="geometry">
                        <mxPoint y="50" as="offset"/>
                    </mxGeometry>
                </mxCell>
                <mxCell id="1RmsraZckriD_mk0YtZa-7" value="Country" style="strokeWidth=1;shadow=0;dashed=0;align=center;html=1;shape=mxgraph.mockup.forms.rrect;rSize=0;fontSize=17;fontColor=#666666;align=left;spacingLeft=5;fillColor=#ddeeff;strokeColor=none;resizeWidth=1;" parent="1RmsraZckriD_mk0YtZa-3" vertex="1">
                    <mxGeometry width="110" height="20" relative="1" as="geometry">
                        <mxPoint y="70" as="offset"/>
                    </mxGeometry>
                </mxCell>
                <mxCell id="1RmsraZckriD_mk0YtZa-8" value="Metal" style="strokeWidth=1;shadow=0;dashed=0;align=center;html=1;shape=mxgraph.mockup.forms.anchor;fontSize=17;fontColor=#666666;align=left;spacingLeft=5;resizeWidth=1;" parent="1RmsraZckriD_mk0YtZa-3" vertex="1">
                    <mxGeometry width="110" height="20" relative="1" as="geometry">
                        <mxPoint y="90" as="offset"/>
                    </mxGeometry>
                </mxCell>
                <mxCell id="1RmsraZckriD_mk0YtZa-10" value="Pop/Dance" style="strokeWidth=1;shadow=0;dashed=0;align=center;html=1;shape=mxgraph.mockup.forms.anchor;fontSize=17;fontColor=#666666;align=left;spacingLeft=5;resizeWidth=1;" parent="1RmsraZckriD_mk0YtZa-3" vertex="1">
                    <mxGeometry y="103.530756302521" width="110" height="22.857142857142854" as="geometry"/>
                </mxCell>
                <mxCell id="1RmsraZckriD_mk0YtZa-17" style="edgeStyle=orthogonalEdgeStyle;rounded=0;orthogonalLoop=1;jettySize=auto;html=1;" parent="1RmsraZckriD_mk0YtZa-3" source="1RmsraZckriD_mk0YtZa-4" edge="1">
                    <mxGeometry relative="1" as="geometry">
                        <mxPoint x="55.02999999999997" y="-120" as="targetPoint"/>
                    </mxGeometry>
                </mxCell>
                <mxCell id="1RmsraZckriD_mk0YtZa-11" value="Rock" style="strokeWidth=1;shadow=0;dashed=0;align=center;html=1;shape=mxgraph.mockup.forms.anchor;fontSize=17;fontColor=#666666;align=left;spacingLeft=5;resizeWidth=1;" parent="1RmsraZckriD_mk0YtZa-3" vertex="1">
                    <mxGeometry y="126.39193277310925" width="110" height="22.857142857142854" as="geometry"/>
                </mxCell>
                <mxCell id="1RmsraZckriD_mk0YtZa-9" value="Search" style="strokeWidth=1;shadow=0;dashed=0;align=center;html=1;shape=mxgraph.mockup.forms.rrect;rSize=5;strokeColor=none;fontColor=#ffffff;fillColor=#66bbff;fontSize=16;fontStyle=1;labelBackgroundColor=none;" parent="1" vertex="1">
                    <mxGeometry x="-250" y="370" width="60" height="30" as="geometry"/>
                </mxCell>
                <mxCell id="1RmsraZckriD_mk0YtZa-23" style="edgeStyle=orthogonalEdgeStyle;rounded=0;orthogonalLoop=1;jettySize=auto;html=1;fontSize=24;" parent="1" source="1RmsraZckriD_mk0YtZa-18" edge="1">
                    <mxGeometry relative="1" as="geometry">
                        <mxPoint x="-260" y="90" as="targetPoint"/>
                        <Array as="points">
                            <mxPoint x="-450" y="145"/>
                            <mxPoint x="-260" y="145"/>
                        </Array>
                    </mxGeometry>
                </mxCell>
                <mxCell id="1RmsraZckriD_mk0YtZa-18" value="&lt;font style=&quot;font-size: 24px;&quot;&gt;playlist-select-component&lt;/font&gt;" style="text;html=1;strokeColor=none;fillColor=none;align=center;verticalAlign=middle;whiteSpace=wrap;rounded=0;" parent="1" vertex="1">
                    <mxGeometry x="-670" y="200" width="310" height="30" as="geometry"/>
                </mxCell>
                <mxCell id="1RmsraZckriD_mk0YtZa-24" style="edgeStyle=orthogonalEdgeStyle;rounded=0;orthogonalLoop=1;jettySize=auto;html=1;fontSize=24;" parent="1" source="1RmsraZckriD_mk0YtZa-20" edge="1">
                    <mxGeometry relative="1" as="geometry">
                        <mxPoint x="-260" y="90" as="targetPoint"/>
                        <Array as="points">
                            <mxPoint x="-80" y="145"/>
                            <mxPoint x="-260" y="145"/>
                        </Array>
                    </mxGeometry>
                </mxCell>
                <mxCell id="1RmsraZckriD_mk0YtZa-20" value="&lt;font style=&quot;font-size: 24px;&quot;&gt;search-input-component&lt;/font&gt;" style="text;html=1;strokeColor=none;fillColor=none;align=center;verticalAlign=middle;whiteSpace=wrap;rounded=0;" parent="1" vertex="1">
                    <mxGeometry x="-290" y="200" width="280" height="30" as="geometry"/>
                </mxCell>
                <mxCell id="1RmsraZckriD_mk0YtZa-29" style="edgeStyle=orthogonalEdgeStyle;rounded=0;orthogonalLoop=1;jettySize=auto;html=1;fontSize=24;" parent="1" source="1RmsraZckriD_mk0YtZa-22" edge="1">
                    <mxGeometry relative="1" as="geometry">
                        <mxPoint x="-400" y="980" as="targetPoint"/>
                        <Array as="points">
                            <mxPoint x="-100" y="910"/>
                            <mxPoint x="-400" y="910"/>
                        </Array>
                    </mxGeometry>
                </mxCell>
                <mxCell id="1RmsraZckriD_mk0YtZa-22" value="&lt;font style=&quot;font-size: 24px;&quot;&gt;list-component&lt;/font&gt;" style="text;html=1;strokeColor=none;fillColor=none;align=center;verticalAlign=middle;whiteSpace=wrap;rounded=0;" parent="1" vertex="1">
                    <mxGeometry x="-230" y="860" width="220" height="30" as="geometry"/>
                </mxCell>
                <mxCell id="1RmsraZckriD_mk0YtZa-89" style="edgeStyle=orthogonalEdgeStyle;rounded=0;orthogonalLoop=1;jettySize=auto;html=1;fontSize=14;" parent="1" source="1RmsraZckriD_mk0YtZa-25" edge="1">
                    <mxGeometry relative="1" as="geometry">
                        <mxPoint x="-1120" y="560" as="targetPoint"/>
                        <Array as="points">
                            <mxPoint x="-960" y="75"/>
                            <mxPoint x="-960" y="560"/>
                            <mxPoint x="-1110" y="560"/>
                        </Array>
                    </mxGeometry>
                </mxCell>
                <mxCell id="1RmsraZckriD_mk0YtZa-25" value="&lt;font style=&quot;font-size: 24px;&quot;&gt;nav-component&lt;/font&gt;" style="text;html=1;strokeColor=none;fillColor=none;align=center;verticalAlign=middle;whiteSpace=wrap;rounded=0;" parent="1" vertex="1">
                    <mxGeometry x="-391.03" y="60" width="220" height="30" as="geometry"/>
                </mxCell>
                <mxCell id="1RmsraZckriD_mk0YtZa-28" style="edgeStyle=orthogonalEdgeStyle;rounded=0;orthogonalLoop=1;jettySize=auto;html=1;fontSize=24;" parent="1" source="1RmsraZckriD_mk0YtZa-27" edge="1">
                    <mxGeometry relative="1" as="geometry">
                        <mxPoint x="-400" y="980" as="targetPoint"/>
                        <Array as="points">
                            <mxPoint x="-700" y="910"/>
                            <mxPoint x="-400" y="910"/>
                        </Array>
                    </mxGeometry>
                </mxCell>
                <mxCell id="1RmsraZckriD_mk0YtZa-27" value="&lt;font style=&quot;font-size: 24px;&quot;&gt;video-component&lt;/font&gt;" style="text;html=1;strokeColor=none;fillColor=none;align=center;verticalAlign=middle;whiteSpace=wrap;rounded=0;" parent="1" vertex="1">
                    <mxGeometry x="-790" y="850" width="220" height="30" as="geometry"/>
                </mxCell>
                <mxCell id="1RmsraZckriD_mk0YtZa-90" style="edgeStyle=orthogonalEdgeStyle;rounded=0;orthogonalLoop=1;jettySize=auto;html=1;fontSize=14;" parent="1" source="1RmsraZckriD_mk0YtZa-30" edge="1">
                    <mxGeometry relative="1" as="geometry">
                        <mxPoint x="-1120" y="560" as="targetPoint"/>
                        <Array as="points">
                            <mxPoint x="-960" y="1005"/>
                            <mxPoint x="-960" y="560"/>
                            <mxPoint x="-1100" y="560"/>
                        </Array>
                    </mxGeometry>
                </mxCell>
                <mxCell id="1RmsraZckriD_mk0YtZa-30" value="&lt;font style=&quot;font-size: 24px;&quot;&gt;body-component&lt;/font&gt;" style="text;html=1;strokeColor=none;fillColor=none;align=center;verticalAlign=middle;whiteSpace=wrap;rounded=0;" parent="1" vertex="1">
                    <mxGeometry x="-510" y="990" width="220" height="30" as="geometry"/>
                </mxCell>
                <mxCell id="suIZJtsKLjKmQ4nwOQu6-1" style="edgeStyle=orthogonalEdgeStyle;rounded=0;orthogonalLoop=1;jettySize=auto;html=1;" parent="1" source="1RmsraZckriD_mk0YtZa-33" edge="1">
                    <mxGeometry relative="1" as="geometry">
                        <mxPoint x="360" y="870" as="targetPoint"/>
                    </mxGeometry>
                </mxCell>
                <mxCell id="1RmsraZckriD_mk0YtZa-33" value="" style="whiteSpace=wrap;html=1;aspect=fixed;" parent="1" vertex="1">
                    <mxGeometry x="140" y="352.5" width="440" height="440" as="geometry"/>
                </mxCell>
                <mxCell id="1RmsraZckriD_mk0YtZa-34" value="Music" style="whiteSpace=wrap;html=1;rounded=0;shadow=0;labelBackgroundColor=none;strokeWidth=1;fontFamily=Verdana;fontSize=28;align=center;comic=1;" parent="1" vertex="1">
                    <mxGeometry x="150" y="362.5" width="90" height="40" as="geometry"/>
                </mxCell>
                <mxCell id="1RmsraZckriD_mk0YtZa-35" value="Search" style="strokeWidth=1;shadow=0;dashed=0;align=center;html=1;shape=mxgraph.mockup.forms.searchBox;strokeColor=#999999;mainText=;strokeColor2=#008cff;fontColor=#666666;fontSize=17;align=left;spacingLeft=3;rounded=0;labelBackgroundColor=none;comic=1;" parent="1" vertex="1">
                    <mxGeometry x="390" y="362.5" width="110" height="30" as="geometry"/>
                </mxCell>
                <mxCell id="1RmsraZckriD_mk0YtZa-45" value="Search" style="strokeWidth=1;shadow=0;dashed=0;align=center;html=1;shape=mxgraph.mockup.forms.rrect;rSize=5;strokeColor=none;fontColor=#ffffff;fillColor=#66bbff;fontSize=16;fontStyle=1;labelBackgroundColor=none;" parent="1" vertex="1">
                    <mxGeometry x="510" y="362.5" width="60" height="30" as="geometry"/>
                </mxCell>
                <mxCell id="1RmsraZckriD_mk0YtZa-48" value="" style="strokeWidth=1;shadow=0;dashed=0;align=center;html=1;shape=mxgraph.mockup.forms.rrect;rSize=0;strokeColor=#999999;fillColor=#ffffff;fontSize=18;" parent="1" vertex="1">
                    <mxGeometry x="250" y="360" width="110" height="30" as="geometry"/>
                </mxCell>
                <mxCell id="1RmsraZckriD_mk0YtZa-49" value="&lt;font color=&quot;#000000&quot;&gt;Default&lt;/font&gt;" style="strokeWidth=1;shadow=0;dashed=0;align=center;html=1;shape=mxgraph.mockup.forms.rrect;rSize=0;strokeColor=#999999;fontColor=#008cff;fontSize=17;fillColor=#ffffff;resizeWidth=1;" parent="1RmsraZckriD_mk0YtZa-48" vertex="1">
                    <mxGeometry width="110" height="30" relative="1" as="geometry"/>
                </mxCell>
                <mxCell id="1RmsraZckriD_mk0YtZa-53" value="" style="strokeWidth=1;shadow=0;dashed=0;align=center;html=1;shape=mxgraph.mockup.forms.anchor;fontSize=17;fontColor=#666666;align=left;spacingLeft=5;resizeWidth=1;" parent="1RmsraZckriD_mk0YtZa-48" vertex="1">
                    <mxGeometry width="110" height="20" relative="1" as="geometry">
                        <mxPoint y="90" as="offset"/>
                    </mxGeometry>
                </mxCell>
                <mxCell id="1RmsraZckriD_mk0YtZa-57" value="" style="verticalLabelPosition=bottom;shadow=0;dashed=0;align=center;html=1;verticalAlign=top;strokeWidth=1;shape=mxgraph.mockup.graphics.simpleIcon;strokeColor=#999999;rounded=0;labelBackgroundColor=none;fontFamily=Verdana;fontSize=14;fontColor=#000000;comic=1;" parent="1" vertex="1">
                    <mxGeometry x="305.75" y="438.5" width="71.5" height="80" as="geometry"/>
                </mxCell>
                <mxCell id="1RmsraZckriD_mk0YtZa-60" value="" style="verticalLabelPosition=bottom;shadow=0;dashed=0;align=center;html=1;verticalAlign=top;strokeWidth=1;shape=mxgraph.mockup.graphics.simpleIcon;strokeColor=#999999;rounded=0;labelBackgroundColor=none;fontFamily=Verdana;fontSize=14;fontColor=#000000;comic=1;" parent="1" vertex="1">
                    <mxGeometry x="305.75" y="538.5" width="71.5" height="80" as="geometry"/>
                </mxCell>
                <mxCell id="1RmsraZckriD_mk0YtZa-61" value="" style="verticalLabelPosition=bottom;shadow=0;dashed=0;align=center;html=1;verticalAlign=top;strokeWidth=1;shape=mxgraph.mockup.graphics.simpleIcon;strokeColor=#999999;rounded=0;labelBackgroundColor=none;fontFamily=Verdana;fontSize=14;fontColor=#000000;comic=1;" parent="1" vertex="1">
                    <mxGeometry x="305.75" y="638.5" width="71.5" height="80" as="geometry"/>
                </mxCell>
                <mxCell id="1RmsraZckriD_mk0YtZa-66" style="edgeStyle=orthogonalEdgeStyle;rounded=0;orthogonalLoop=1;jettySize=auto;html=1;fontSize=14;" parent="1" source="1RmsraZckriD_mk0YtZa-63" edge="1">
                    <mxGeometry relative="1" as="geometry">
                        <mxPoint x="1090" y="453.5" as="targetPoint"/>
                    </mxGeometry>
                </mxCell>
                <mxCell id="1RmsraZckriD_mk0YtZa-63" value="&lt;font style=&quot;font-size: 14px;&quot;&gt;Detail&lt;/font&gt;" style="text;html=1;strokeColor=none;fillColor=none;align=center;verticalAlign=middle;whiteSpace=wrap;rounded=0;fontSize=24;" parent="1" vertex="1">
                    <mxGeometry x="390" y="438.5" width="60" height="30" as="geometry"/>
                </mxCell>
                <mxCell id="1RmsraZckriD_mk0YtZa-65" value="&lt;font style=&quot;font-size: 24px;&quot;&gt;resutal-search-component&lt;/font&gt;" style="text;html=1;strokeColor=none;fillColor=none;align=center;verticalAlign=middle;whiteSpace=wrap;rounded=0;" parent="1" vertex="1">
                    <mxGeometry x="220" y="880" width="300" height="30" as="geometry"/>
                </mxCell>
                <mxCell id="1RmsraZckriD_mk0YtZa-67" value="&lt;font style=&quot;font-size: 14px;&quot;&gt;Detail&lt;/font&gt;" style="text;html=1;strokeColor=none;fillColor=none;align=center;verticalAlign=middle;whiteSpace=wrap;rounded=0;fontSize=24;" parent="1" vertex="1">
                    <mxGeometry x="395" y="535" width="60" height="30" as="geometry"/>
                </mxCell>
                <mxCell id="1RmsraZckriD_mk0YtZa-68" value="&lt;font style=&quot;font-size: 14px;&quot;&gt;Detail&lt;/font&gt;" style="text;html=1;strokeColor=none;fillColor=none;align=center;verticalAlign=middle;whiteSpace=wrap;rounded=0;fontSize=24;" parent="1" vertex="1">
                    <mxGeometry x="405" y="638.5" width="60" height="30" as="geometry"/>
                </mxCell>
                <mxCell id="1RmsraZckriD_mk0YtZa-87" style="edgeStyle=orthogonalEdgeStyle;rounded=0;orthogonalLoop=1;jettySize=auto;html=1;fontSize=14;" parent="1" source="1RmsraZckriD_mk0YtZa-69" edge="1">
                    <mxGeometry relative="1" as="geometry">
                        <mxPoint x="1310" y="860" as="targetPoint"/>
                    </mxGeometry>
                </mxCell>
                <mxCell id="1RmsraZckriD_mk0YtZa-69" value="" style="whiteSpace=wrap;html=1;aspect=fixed;" parent="1" vertex="1">
                    <mxGeometry x="1090" y="352.5" width="440" height="440" as="geometry"/>
                </mxCell>
                <mxCell id="1RmsraZckriD_mk0YtZa-70" value="Music" style="whiteSpace=wrap;html=1;rounded=0;shadow=0;labelBackgroundColor=none;strokeWidth=1;fontFamily=Verdana;fontSize=28;align=center;comic=1;" parent="1" vertex="1">
                    <mxGeometry x="1100" y="362.5" width="90" height="40" as="geometry"/>
                </mxCell>
                <mxCell id="1RmsraZckriD_mk0YtZa-71" value="Search" style="strokeWidth=1;shadow=0;dashed=0;align=center;html=1;shape=mxgraph.mockup.forms.searchBox;strokeColor=#999999;mainText=;strokeColor2=#008cff;fontColor=#666666;fontSize=17;align=left;spacingLeft=3;rounded=0;labelBackgroundColor=none;comic=1;" parent="1" vertex="1">
                    <mxGeometry x="1340" y="362.5" width="110" height="30" as="geometry"/>
                </mxCell>
                <mxCell id="1RmsraZckriD_mk0YtZa-72" value="Search" style="strokeWidth=1;shadow=0;dashed=0;align=center;html=1;shape=mxgraph.mockup.forms.rrect;rSize=5;strokeColor=none;fontColor=#ffffff;fillColor=#66bbff;fontSize=16;fontStyle=1;labelBackgroundColor=none;" parent="1" vertex="1">
                    <mxGeometry x="1460" y="362.5" width="60" height="30" as="geometry"/>
                </mxCell>
                <mxCell id="1RmsraZckriD_mk0YtZa-73" value="" style="strokeWidth=1;shadow=0;dashed=0;align=center;html=1;shape=mxgraph.mockup.forms.rrect;rSize=0;strokeColor=#999999;fillColor=#ffffff;fontSize=18;" parent="1" vertex="1">
                    <mxGeometry x="1200" y="360" width="110" height="30" as="geometry"/>
                </mxCell>
                <mxCell id="1RmsraZckriD_mk0YtZa-74" value="&lt;font color=&quot;#000000&quot;&gt;Default&lt;/font&gt;" style="strokeWidth=1;shadow=0;dashed=0;align=center;html=1;shape=mxgraph.mockup.forms.rrect;rSize=0;strokeColor=#999999;fontColor=#008cff;fontSize=17;fillColor=#ffffff;resizeWidth=1;" parent="1RmsraZckriD_mk0YtZa-73" vertex="1">
                    <mxGeometry width="110" height="30" relative="1" as="geometry"/>
                </mxCell>
                <mxCell id="1RmsraZckriD_mk0YtZa-75" value="" style="strokeWidth=1;shadow=0;dashed=0;align=center;html=1;shape=mxgraph.mockup.forms.anchor;fontSize=17;fontColor=#666666;align=left;spacingLeft=5;resizeWidth=1;" parent="1RmsraZckriD_mk0YtZa-73" vertex="1">
                    <mxGeometry width="110" height="20" relative="1" as="geometry">
                        <mxPoint y="90" as="offset"/>
                    </mxGeometry>
                </mxCell>
                <mxCell id="1RmsraZckriD_mk0YtZa-76" value="" style="verticalLabelPosition=bottom;shadow=0;dashed=0;align=center;html=1;verticalAlign=top;strokeWidth=1;shape=mxgraph.mockup.graphics.simpleIcon;strokeColor=#999999;rounded=0;labelBackgroundColor=none;fontFamily=Verdana;fontSize=14;fontColor=#000000;comic=1;" parent="1" vertex="1">
                    <mxGeometry x="1120" y="438.5" width="207.25" height="251.5" as="geometry"/>
                </mxCell>
                <mxCell id="1RmsraZckriD_mk0YtZa-82" value="" style="strokeWidth=1;shadow=0;dashed=0;align=center;html=1;shape=mxgraph.mockup.containers.rrect;rSize=0;strokeColor=#666666;" parent="1" vertex="1">
                    <mxGeometry x="1410" y="438.5" width="100" height="251.5" as="geometry"/>
                </mxCell>
                <mxCell id="1RmsraZckriD_mk0YtZa-83" value="song 1" style="strokeColor=inherit;fillColor=inherit;gradientColor=inherit;strokeWidth=1;shadow=0;dashed=0;align=center;html=1;shape=mxgraph.mockup.containers.rrect;rSize=0;fontSize=17;fontColor=#666666;fontStyle=1;resizeWidth=1;" parent="1RmsraZckriD_mk0YtZa-82" vertex="1">
                    <mxGeometry width="100" height="26" relative="1" as="geometry"/>
                </mxCell>
                <mxCell id="1RmsraZckriD_mk0YtZa-84" value="song 2" style="strokeColor=inherit;fillColor=inherit;gradientColor=inherit;strokeWidth=1;shadow=0;dashed=0;align=center;html=1;shape=mxgraph.mockup.containers.rrect;rSize=0;fontSize=17;fontColor=#666666;fontStyle=1;resizeWidth=1;" parent="1RmsraZckriD_mk0YtZa-82" vertex="1">
                    <mxGeometry width="100" height="26" relative="1" as="geometry">
                        <mxPoint y="26" as="offset"/>
                    </mxGeometry>
                </mxCell>
                <mxCell id="1RmsraZckriD_mk0YtZa-85" value="song 3" style="strokeWidth=1;shadow=0;dashed=0;align=center;html=1;shape=mxgraph.mockup.containers.rrect;rSize=0;fontSize=17;fontColor=#ffffff;fontStyle=1;fillColor=#008cff;strokeColor=#008cff;resizeWidth=1;" parent="1RmsraZckriD_mk0YtZa-82" vertex="1">
                    <mxGeometry width="100" height="26" relative="1" as="geometry">
                        <mxPoint y="52" as="offset"/>
                    </mxGeometry>
                </mxCell>
                <mxCell id="1RmsraZckriD_mk0YtZa-88" value="&lt;font style=&quot;font-size: 24px;&quot;&gt;detail-resutal-component&lt;/font&gt;" style="text;html=1;strokeColor=none;fillColor=none;align=center;verticalAlign=middle;whiteSpace=wrap;rounded=0;" parent="1" vertex="1">
                    <mxGeometry x="1140" y="880" width="300" height="30" as="geometry"/>
                </mxCell>
                <mxCell id="1RmsraZckriD_mk0YtZa-91" value="&lt;font style=&quot;font-size: 24px;&quot;&gt;application-container&lt;/font&gt;" style="text;html=1;strokeColor=none;fillColor=none;align=center;verticalAlign=middle;whiteSpace=wrap;rounded=0;" parent="1" vertex="1">
                    <mxGeometry x="-1410" y="549.25" width="270" height="30" as="geometry"/>
                </mxCell>
                <mxCell id="1RmsraZckriD_mk0YtZa-93" value="" style="group" parent="1" vertex="1" connectable="0">
                    <mxGeometry x="-596" y="662" width="35" height="20" as="geometry"/>
                </mxCell>
                <mxCell id="1RmsraZckriD_mk0YtZa-12" value="" style="triangle;whiteSpace=wrap;html=1;fontSize=18;" parent="1RmsraZckriD_mk0YtZa-93" vertex="1">
                    <mxGeometry x="20" width="15" height="20" as="geometry"/>
                </mxCell>
                <mxCell id="1RmsraZckriD_mk0YtZa-94" value="" style="group;rotation=-180;" parent="1" vertex="1" connectable="0">
                    <mxGeometry x="-600" y="663" width="35" height="20" as="geometry"/>
                </mxCell>
                <mxCell id="1RmsraZckriD_mk0YtZa-95" value="" style="triangle;whiteSpace=wrap;html=1;fontSize=18;rotation=-180;" parent="1RmsraZckriD_mk0YtZa-94" vertex="1">
                    <mxGeometry x="2" y="-1" width="15" height="20" as="geometry"/>
                </mxCell>
                <mxCell id="1RmsraZckriD_mk0YtZa-96" value="&lt;font style=&quot;font-size: 48px;&quot;&gt;structure de projet&lt;/font&gt;" style="text;html=1;strokeColor=none;fillColor=#FF3333;align=center;verticalAlign=middle;whiteSpace=wrap;rounded=0;fontSize=14;" parent="1" vertex="1">
                    <mxGeometry x="-1460" y="1040" width="430" height="30" as="geometry"/>
                </mxCell>
                <mxCell id="1RmsraZckriD_mk0YtZa-102" value="component" style="swimlane;strokeColor=#FF0000;fontSize=18;fillColor=#FF3333;" parent="1" vertex="1">
                    <mxGeometry x="-1480" y="1160" width="1370" height="720" as="geometry"/>
                </mxCell>
                <mxCell id="1RmsraZckriD_mk0YtZa-100" value="&lt;p style=&quot;margin:0px;margin-top:6px;text-align:center;&quot;&gt;&lt;b&gt;PlaylistSelectComponent&lt;/b&gt;&lt;/p&gt;&lt;hr&gt;&lt;p style=&quot;margin:0px;margin-left:8px;&quot;&gt;+ Attribute1: Type&lt;br&gt;+ Attribute2: Type&lt;/p&gt;" style="align=left;overflow=fill;html=1;dropTarget=0;strokeColor=#FF0000;fontSize=18;fillColor=#FF3333;" parent="1RmsraZckriD_mk0YtZa-102" vertex="1">
                    <mxGeometry x="35" y="100" width="295" height="90" as="geometry"/>
                </mxCell>
                <mxCell id="1RmsraZckriD_mk0YtZa-101" value="" style="shape=component;jettyWidth=8;jettyHeight=4;strokeColor=#FF0000;fontSize=18;fillColor=#FF3333;" parent="1RmsraZckriD_mk0YtZa-100" vertex="1">
                    <mxGeometry x="1" width="20" height="20" relative="1" as="geometry">
                        <mxPoint x="-24" y="4" as="offset"/>
                    </mxGeometry>
                </mxCell>
                <mxCell id="1RmsraZckriD_mk0YtZa-103" value="&lt;p style=&quot;margin:0px;margin-top:6px;text-align:center;&quot;&gt;&lt;b&gt;SearchInputComponent&lt;/b&gt;&lt;/p&gt;&lt;hr&gt;&lt;p style=&quot;margin:0px;margin-left:8px;&quot;&gt;+ Attribute1: Type&lt;br&gt;+ Attribute2: Type&lt;/p&gt;" style="align=left;overflow=fill;html=1;dropTarget=0;strokeColor=#FF0000;fontSize=18;fillColor=#FF3333;" parent="1RmsraZckriD_mk0YtZa-102" vertex="1">
                    <mxGeometry x="360" y="100" width="295" height="90" as="geometry"/>
                </mxCell>
                <mxCell id="1RmsraZckriD_mk0YtZa-104" value="" style="shape=component;jettyWidth=8;jettyHeight=4;strokeColor=#FF0000;fontSize=18;fillColor=#FF3333;" parent="1RmsraZckriD_mk0YtZa-103" vertex="1">
                    <mxGeometry x="1" width="20" height="20" relative="1" as="geometry">
                        <mxPoint x="-24" y="4" as="offset"/>
                    </mxGeometry>
                </mxCell>
                <mxCell id="1RmsraZckriD_mk0YtZa-105" value="&lt;p style=&quot;margin:0px;margin-top:6px;text-align:center;&quot;&gt;&lt;b&gt;ListComponent&lt;/b&gt;&lt;/p&gt;&lt;hr&gt;&lt;p style=&quot;margin:0px;margin-left:8px;&quot;&gt;+ Attribute1: Type&lt;br&gt;+ Attribute2: Type&lt;/p&gt;" style="align=left;overflow=fill;html=1;dropTarget=0;strokeColor=#FF0000;fontSize=18;fillColor=#FF3333;" parent="1RmsraZckriD_mk0YtZa-102" vertex="1">
                    <mxGeometry x="690" y="100" width="295" height="90" as="geometry"/>
                </mxCell>
                <mxCell id="1RmsraZckriD_mk0YtZa-106" value="" style="shape=component;jettyWidth=8;jettyHeight=4;strokeColor=#FF0000;fontSize=18;fillColor=#FF3333;" parent="1RmsraZckriD_mk0YtZa-105" vertex="1">
                    <mxGeometry x="1" width="20" height="20" relative="1" as="geometry">
                        <mxPoint x="-24" y="4" as="offset"/>
                    </mxGeometry>
                </mxCell>
                <mxCell id="1RmsraZckriD_mk0YtZa-107" value="&lt;p style=&quot;margin:0px;margin-top:6px;text-align:center;&quot;&gt;&lt;b&gt;VideoComponent&lt;/b&gt;&lt;/p&gt;&lt;hr&gt;&lt;p style=&quot;margin:0px;margin-left:8px;&quot;&gt;+ Attribute1: Type&lt;br&gt;+ Attribute2: Type&lt;/p&gt;" style="align=left;overflow=fill;html=1;dropTarget=0;strokeColor=#FF0000;fontSize=18;fillColor=#FF3333;" parent="1RmsraZckriD_mk0YtZa-102" vertex="1">
                    <mxGeometry x="1030" y="100" width="295" height="90" as="geometry"/>
                </mxCell>
                <mxCell id="1RmsraZckriD_mk0YtZa-108" value="" style="shape=component;jettyWidth=8;jettyHeight=4;strokeColor=#FF0000;fontSize=18;fillColor=#FF3333;" parent="1RmsraZckriD_mk0YtZa-107" vertex="1">
                    <mxGeometry x="1" width="20" height="20" relative="1" as="geometry">
                        <mxPoint x="-24" y="4" as="offset"/>
                    </mxGeometry>
                </mxCell>
                <mxCell id="1RmsraZckriD_mk0YtZa-109" value="&lt;p style=&quot;margin:0px;margin-top:6px;text-align:center;&quot;&gt;&lt;b&gt;ResutalSearchComponent&lt;/b&gt;&lt;/p&gt;&lt;hr&gt;&lt;p style=&quot;margin:0px;margin-left:8px;&quot;&gt;+ Attribute1: Type&lt;br&gt;+ Attribute2: Type&lt;/p&gt;" style="align=left;overflow=fill;html=1;dropTarget=0;strokeColor=#FF0000;fontSize=18;fillColor=#FF3333;" parent="1RmsraZckriD_mk0YtZa-102" vertex="1">
                    <mxGeometry x="30" y="310" width="295" height="90" as="geometry"/>
                </mxCell>
                <mxCell id="1RmsraZckriD_mk0YtZa-110" value="" style="shape=component;jettyWidth=8;jettyHeight=4;strokeColor=#FF0000;fontSize=18;fillColor=#FF3333;" parent="1RmsraZckriD_mk0YtZa-109" vertex="1">
                    <mxGeometry x="1" width="20" height="20" relative="1" as="geometry">
                        <mxPoint x="-24" y="4" as="offset"/>
                    </mxGeometry>
                </mxCell>
                <mxCell id="1RmsraZckriD_mk0YtZa-111" value="&lt;p style=&quot;margin:0px;margin-top:6px;text-align:center;&quot;&gt;&lt;b&gt;DetailResutalComponent&lt;/b&gt;&lt;/p&gt;&lt;hr&gt;&lt;p style=&quot;margin:0px;margin-left:8px;&quot;&gt;+ Attribute1: Type&lt;br&gt;+ Attribute2: Type&lt;/p&gt;" style="align=left;overflow=fill;html=1;dropTarget=0;strokeColor=#FF0000;fontSize=18;fillColor=#FF3333;" parent="1RmsraZckriD_mk0YtZa-102" vertex="1">
                    <mxGeometry x="360" y="310" width="295" height="90" as="geometry"/>
                </mxCell>
                <mxCell id="1RmsraZckriD_mk0YtZa-112" value="" style="shape=component;jettyWidth=8;jettyHeight=4;strokeColor=#FF0000;fontSize=18;fillColor=#FF3333;" parent="1RmsraZckriD_mk0YtZa-111" vertex="1">
                    <mxGeometry x="1" width="20" height="20" relative="1" as="geometry">
                        <mxPoint x="-24" y="4" as="offset"/>
                    </mxGeometry>
                </mxCell>
                <mxCell id="1RmsraZckriD_mk0YtZa-113" value="Container" style="swimlane;strokeColor=#0000CC;fontSize=18;fillColor=#CCCC00;" parent="1" vertex="1">
                    <mxGeometry x="-70" y="1160" width="1485" height="720" as="geometry"/>
                </mxCell>
                <mxCell id="1RmsraZckriD_mk0YtZa-126" value="ApplicationContainer" style="swimlane;strokeColor=#0000CC;fontSize=18;fillColor=#66CC00;" parent="1RmsraZckriD_mk0YtZa-113" vertex="1">
                    <mxGeometry x="85" y="180" width="1325" height="410" as="geometry"/>
                </mxCell>
                <mxCell id="1RmsraZckriD_mk0YtZa-127" value="&lt;p style=&quot;margin:0px;margin-top:6px;text-align:center;&quot;&gt;&lt;b&gt;PlaylistSelectComponent&lt;/b&gt;&lt;/p&gt;&lt;hr&gt;&lt;p style=&quot;margin:0px;margin-left:8px;&quot;&gt;+ Attribute1: Type&lt;br&gt;+ Attribute2: Type&lt;/p&gt;" style="align=left;overflow=fill;html=1;dropTarget=0;strokeColor=#FF0000;fontSize=18;fillColor=#FF3333;" parent="1RmsraZckriD_mk0YtZa-126" vertex="1">
                    <mxGeometry x="163" y="100" width="295" height="40" as="geometry"/>
                </mxCell>
                <mxCell id="1RmsraZckriD_mk0YtZa-128" value="" style="shape=component;jettyWidth=8;jettyHeight=4;strokeColor=#FF0000;fontSize=18;fillColor=#FF3333;" parent="1RmsraZckriD_mk0YtZa-127" vertex="1">
                    <mxGeometry x="1" width="20" height="20" relative="1" as="geometry">
                        <mxPoint x="-24" y="4" as="offset"/>
                    </mxGeometry>
                </mxCell>
                <mxCell id="1RmsraZckriD_mk0YtZa-129" value="&lt;p style=&quot;margin:0px;margin-top:6px;text-align:center;&quot;&gt;&lt;b&gt;SearchInputComponent&lt;/b&gt;&lt;/p&gt;&lt;hr&gt;&lt;p style=&quot;margin:0px;margin-left:8px;&quot;&gt;+ Attribute1: Type&lt;br&gt;+ Attribute2: Type&lt;/p&gt;" style="align=left;overflow=fill;html=1;dropTarget=0;strokeColor=#FF0000;fontSize=18;fillColor=#FF3333;" parent="1RmsraZckriD_mk0YtZa-126" vertex="1">
                    <mxGeometry x="488" y="100" width="295" height="40" as="geometry"/>
                </mxCell>
                <mxCell id="1RmsraZckriD_mk0YtZa-130" value="" style="shape=component;jettyWidth=8;jettyHeight=4;strokeColor=#FF0000;fontSize=18;fillColor=#FF3333;" parent="1RmsraZckriD_mk0YtZa-129" vertex="1">
                    <mxGeometry x="1" width="20" height="20" relative="1" as="geometry">
                        <mxPoint x="-24" y="4" as="offset"/>
                    </mxGeometry>
                </mxCell>
                <mxCell id="1RmsraZckriD_mk0YtZa-131" value="&lt;p style=&quot;margin:0px;margin-top:6px;text-align:center;&quot;&gt;&lt;b&gt;ListComponent&lt;/b&gt;&lt;/p&gt;&lt;hr&gt;&lt;p style=&quot;margin:0px;margin-left:8px;&quot;&gt;+ Attribute1: Type&lt;br&gt;+ Attribute2: Type&lt;/p&gt;" style="align=left;overflow=fill;html=1;dropTarget=0;strokeColor=#FF0000;fontSize=18;fillColor=#FF3333;" parent="1RmsraZckriD_mk0YtZa-126" vertex="1">
                    <mxGeometry x="818" y="100" width="295" height="40" as="geometry"/>
                </mxCell>
                <mxCell id="1RmsraZckriD_mk0YtZa-132" value="" style="shape=component;jettyWidth=8;jettyHeight=4;strokeColor=#FF0000;fontSize=18;fillColor=#FF3333;" parent="1RmsraZckriD_mk0YtZa-131" vertex="1">
                    <mxGeometry x="1" width="20" height="20" relative="1" as="geometry">
                        <mxPoint x="-24" y="4" as="offset"/>
                    </mxGeometry>
                </mxCell>
                <mxCell id="1RmsraZckriD_mk0YtZa-133" value="&lt;p style=&quot;margin:0px;margin-top:6px;text-align:center;&quot;&gt;&lt;b&gt;VideoComponent&lt;/b&gt;&lt;/p&gt;&lt;hr&gt;&lt;p style=&quot;margin:0px;margin-left:8px;&quot;&gt;+ Attribute1: Type&lt;br&gt;+ Attribute2: Type&lt;/p&gt;" style="align=left;overflow=fill;html=1;dropTarget=0;strokeColor=#FF0000;fontSize=18;fillColor=#FF3333;" parent="1RmsraZckriD_mk0YtZa-126" vertex="1">
                    <mxGeometry x="818" y="185" width="295" height="40" as="geometry"/>
                </mxCell>
                <mxCell id="1RmsraZckriD_mk0YtZa-134" value="" style="shape=component;jettyWidth=8;jettyHeight=4;strokeColor=#FF0000;fontSize=18;fillColor=#FF3333;" parent="1RmsraZckriD_mk0YtZa-133" vertex="1">
                    <mxGeometry x="1" width="20" height="20" relative="1" as="geometry">
                        <mxPoint x="-24" y="4" as="offset"/>
                    </mxGeometry>
                </mxCell>
                <mxCell id="1RmsraZckriD_mk0YtZa-135" value="&lt;p style=&quot;margin:0px;margin-top:6px;text-align:center;&quot;&gt;&lt;b&gt;ResutalSearchComponent&lt;/b&gt;&lt;/p&gt;&lt;hr&gt;&lt;p style=&quot;margin:0px;margin-left:8px;&quot;&gt;+ Attribute1: Type&lt;br&gt;+ Attribute2: Type&lt;/p&gt;" style="align=left;overflow=fill;html=1;dropTarget=0;strokeColor=#FF0000;fontSize=18;fillColor=#FF3333;" parent="1RmsraZckriD_mk0YtZa-126" vertex="1">
                    <mxGeometry x="163" y="185" width="295" height="40" as="geometry"/>
                </mxCell>
                <mxCell id="1RmsraZckriD_mk0YtZa-136" value="" style="shape=component;jettyWidth=8;jettyHeight=4;strokeColor=#FF0000;fontSize=18;fillColor=#FF3333;" parent="1RmsraZckriD_mk0YtZa-135" vertex="1">
                    <mxGeometry x="1" width="20" height="20" relative="1" as="geometry">
                        <mxPoint x="-24" y="4" as="offset"/>
                    </mxGeometry>
                </mxCell>
                <mxCell id="1RmsraZckriD_mk0YtZa-137" value="&lt;p style=&quot;margin:0px;margin-top:6px;text-align:center;&quot;&gt;&lt;b&gt;DetailResutalComponent&lt;/b&gt;&lt;/p&gt;&lt;hr&gt;&lt;p style=&quot;margin:0px;margin-left:8px;&quot;&gt;+ Attribute1: Type&lt;br&gt;+ Attribute2: Type&lt;/p&gt;" style="align=left;overflow=fill;html=1;dropTarget=0;strokeColor=#FF0000;fontSize=18;fillColor=#FF3333;" parent="1RmsraZckriD_mk0YtZa-126" vertex="1">
                    <mxGeometry x="488" y="185" width="295" height="40" as="geometry"/>
                </mxCell>
                <mxCell id="1RmsraZckriD_mk0YtZa-138" value="" style="shape=component;jettyWidth=8;jettyHeight=4;strokeColor=#FF0000;fontSize=18;fillColor=#FF3333;" parent="1RmsraZckriD_mk0YtZa-137" vertex="1">
                    <mxGeometry x="1" width="20" height="20" relative="1" as="geometry">
                        <mxPoint x="-24" y="4" as="offset"/>
                    </mxGeometry>
                </mxCell>
            </root>
        </mxGraphModel>
    </diagram>
</mxfile>